<!-- Generated by IcoMoon.io -->
<svg version="1.1" xmlns="http://www.w3.org/2000/svg" width="32" height="32" viewBox="0 0 32 32">
<title>pdf</title>
<path fill="#444" d="M15.762 11.45h-0.475v3.488h0.356c0.531 0 0.888-0.119 1.125-0.412s0.356-0.769 0.356-1.356-0.119-1.006-0.356-1.238c-0.294-0.363-0.594-0.481-1.006-0.481z"></path>
<path fill="#444" d="M10.213 11.45h-0.412v1.419h0.294c0.238 0 0.475-0.056 0.594-0.238 0.175-0.119 0.238-0.356 0.238-0.594-0.006-0.406-0.244-0.588-0.713-0.588z"></path>
<path fill="#444" d="M5.719 2v27.944h12.7v-7.681h7.856v-20.262h-20.556zM11.981 13.694c-0.412 0.356-1.006 0.594-1.713 0.594h-0.475v2.069h-1.656v-6.262h2.125c0.769 0 1.356 0.175 1.775 0.531 0.412 0.356 0.594 0.825 0.594 1.475s-0.238 1.181-0.65 1.594zM17.95 15.469c-0.594 0.531-1.356 0.825-2.425 0.825h-1.95v-6.2h2.125c1.006 0 1.775 0.238 2.306 0.769s0.825 1.238 0.825 2.188c-0.056 1.063-0.35 1.825-0.881 2.419zM23.563 11.45h-2.006v1.181h1.831v1.356h-1.831v2.306h-1.656v-6.2h3.663v1.356z"></path>
<path fill="#444" d="M20.256 24.15v5.85l5.906-5.85z"></path>
</svg>
