<!-- Generated by IcoMoon.io -->
<svg version="1.1" xmlns="http://www.w3.org/2000/svg" width="32" height="32" viewBox="0 0 32 32">
<title>visio</title>
<path fill="#444" d="M18.057 11.139l-1.411-1.427 1.427-1.411 1.411 1.427-1.427 1.411z"></path>
<path fill="#444" d="M17.006 14.938c0.238 0 0.413-0.175 0.413-0.412s-0.175-0.412-0.413-0.412c-0.238 0-0.413 0.175-0.413 0.412 0.056 0.238 0.231 0.412 0.413 0.412z"></path>
<path fill="#444" d="M18.069 14.113c-0.238 0-0.413 0.175-0.413 0.412s0.175 0.412 0.413 0.412 0.413-0.175 0.413-0.412c0-0.238-0.175-0.412-0.413-0.412z"></path>
<path fill="#444" d="M18.069 12.456c0.238 0 0.413-0.175 0.413-0.412s-0.175-0.412-0.413-0.412c-0.238 0-0.413 0.175-0.413 0.412s0.175 0.412 0.413 0.412z"></path>
<path fill="#444" d="M18.069 13.694c0.238 0 0.413-0.175 0.413-0.412s-0.175-0.412-0.413-0.412c-0.238 0-0.413 0.175-0.413 0.412s0.175 0.412 0.413 0.412z"></path>
<path fill="#444" d="M5.719 2v27.944h12.7v-7.681h7.856v-20.262h-20.556zM20.9 19.188h-9.919v-12.994h9.981l-0.063 12.994z"></path>
<path fill="#444" d="M12.222 15.291l-0.008-1.594 1.594-0.008 0.008 1.594-1.594 0.008z"></path>
<path fill="#444" d="M15.881 14.938c0.237 0 0.412-0.175 0.412-0.412s-0.175-0.412-0.412-0.412c-0.238 0-0.412 0.175-0.412 0.412s0.175 0.412 0.412 0.412z"></path>
<path fill="#444" d="M14.644 14.994c0.238 0 0.412-0.175 0.412-0.412s-0.175-0.412-0.412-0.412-0.412 0.175-0.412 0.412c-0.006 0.181 0.175 0.412 0.412 0.412z"></path>
<path fill="#444" d="M20.256 24.15v5.85h0.056l5.906-5.85z"></path>
</svg>
