<!-- Generated by IcoMoon.io -->
<svg version="1.1" xmlns="http://www.w3.org/2000/svg" width="32" height="32" viewBox="0 0 32 32">
<title>music</title>
<path fill="#888" d="M5.719 2v27.944h12.7v-7.681h7.856v-20.262h-20.556zM21.375 16.119c0 1.419-0.531 2.6-1.887 2.6s-2.481-1.181-2.481-2.6c0-1.419 0.769-2.6 2.125-2.6 0.475 0 0.944 0.056 1.181 0.594v-4.725l-5.375 1.175v7.087c0 1.419-0.475 2.363-1.831 2.363s-2.481-1.175-2.481-2.594c0-1.419 0.65-2.719 2.069-2.719 0.475 0 0.944 0.175 1.125 0.594v-8.275l7.681-1.181v10.281h-0.125z"></path>
<path fill="#888" d="M20.256 24.15v5.85l5.906-5.85z"></path>
</svg>
