<!-- Generated by IcoMoon.io -->
<svg version="1.1" xmlns="http://www.w3.org/2000/svg" width="32" height="32" viewBox="0 0 32 32">
<title>cloud-drive</title>
<path fill="#444" d="M23.719 22.631l-2.006-6.019c-0.087-0.35-0.35-0.613-0.613-0.875-0.35-0.262-0.613-0.35-1.044-0.35h-7.762c-0.35 0-0.7 0.088-1.044 0.35s-0.525 0.525-0.613 0.875l-1.919 6.019c-0.088 0.35-0.175 0.613-0.175 0.788v3.137c0 0.438 0.175 0.788 0.438 1.131 0.35 0.35 0.7 0.438 1.131 0.438h12.125c0.438 0 0.788-0.175 1.131-0.438 0.35-0.35 0.438-0.7 0.438-1.131v-3.225c0.087-0.181 0-0.35-0.087-0.7zM11.944 16.962c0-0.087 0.088-0.175 0.175-0.175 0.088-0.087 0.175-0.087 0.262-0.087h7.763c0.087 0 0.175 0 0.262 0.087s0.175 0.087 0.175 0.175l1.569 4.8h-11.775l1.569-4.8zM22.587 26.556c0 0.087 0 0.175-0.087 0.262s-0.175 0.087-0.262 0.087h-12.037c-0.088 0-0.175 0-0.262-0.087 0-0.087-0.088-0.175-0.088-0.262v-3.225c0-0.087 0-0.175 0.088-0.262 0.088 0 0.175 0 0.262 0h12.125c0.087 0 0.175 0 0.262 0.087s0.087 0.175 0.087 0.262l-0.087 3.137z"></path>
<path fill="#444" d="M26.337 12.688c0.087-0.35 0.087-0.613 0.087-0.963 0-2.444-1.919-4.362-4.363-4.362-0.35 0-0.788 0.088-1.131 0.175-0.7-2.094-2.619-3.663-4.975-3.663s-4.362 1.569-5.056 3.75c-0.613-0.175-1.219-0.263-1.919-0.263-3.844 0-6.981 3.144-6.981 6.981 0 3.313 2.356 6.194 5.494 6.806v-1.837c-2.181-0.613-3.75-2.619-3.75-4.975 0-2.881 2.356-5.231 5.231-5.231 1.744 0 3.225 0.787 4.188 2.094l1.394-1.044c-0.525-0.7-1.219-1.306-2.006-1.831 0.35-1.569 1.744-2.706 3.4-2.706 1.919 0 3.487 1.569 3.487 3.487 0 0.525-0.087 0.963-0.262 1.394l1.569 0.7c0.262-0.613 0.438-1.306 0.438-1.919 0.262-0.088 0.525-0.175 0.875-0.175 1.481 0 2.619 1.131 2.619 2.619 0 0.35-0.087 0.7-0.175 1.044-0.525 0.088-0.962 0.35-1.306 0.613l0.962 1.481c0.438-0.262 0.962-0.438 1.481-0.438 1.481 0 2.619 1.131 2.619 2.619s-1.131 2.619-2.619 2.619v0h-0.875v1.744h0.875c2.444 0 4.363-1.919 4.363-4.363-0.087-2.262-1.656-4.012-3.663-4.356z"></path>
<path fill="#444" d="M21.587 24.962c0 0.411-0.333 0.744-0.744 0.744s-0.744-0.333-0.744-0.744c0-0.411 0.333-0.744 0.744-0.744s0.744 0.333 0.744 0.744z"></path>
<path fill="#444" d="M18.769 24.962c0 0.252-0.204 0.456-0.456 0.456s-0.456-0.204-0.456-0.456c0-0.252 0.204-0.456 0.456-0.456s0.456 0.204 0.456 0.456z"></path>
</svg>
