<!-- Generated by IcoMoon.io -->
<svg version="1.1" xmlns="http://www.w3.org/2000/svg" width="16" height="16" viewBox="0 0 32 32">
<title>ppt</title>
<path fill="#888" d="M16.825 11.394h3.425v0.594h-3.425v-0.594z"></path>
<path fill="#888" d="M16.825 13.463h3.425v0.594h-3.425v-0.594z"></path>
<path fill="#888" d="M11.863 8.088h8.387v1.356h-8.387v-1.356z"></path>
<path fill="#888" d="M16.825 15.525h3.425v0.594h-3.425v-0.594z"></path>
<path fill="#888" d="M12.694 16c1.063 0.475 2.306-0.056 2.775-1.125 0.475-1.063-0.056-2.306-1.125-2.775s-2.306 0.056-2.775 1.125c-0.412 1.063 0.063 2.3 1.125 2.775zM14.644 12.512c0 0 0.65 0.594 0.65 1.775l-1.713-0.175 1.063-1.6z"></path>
<path fill="#888" d="M5.719 2v27.944h12.7v-7.681h7.856v-20.262h-20.556zM21.613 19.25h-11.281v-12.994h11.344v12.994h-0.063z"></path>
<path fill="#888" d="M20.256 24.15v5.85l5.962-5.85z"></path>
</svg>
