<!-- Generated by IcoMoon.io -->
<svg version="1.1" xmlns="http://www.w3.org/2000/svg" width="32" height="32" viewBox="0 0 32 32">
<title>xml</title>
<path fill="#444" d="M2.638 2h19.281v6.044h-19.281v-6.044z"></path>
<path fill="#444" d="M2.638 16.575v6.044h7.444v-2.613h11.838v-3.431z"></path>
<path fill="#444" d="M2.638 9.381h19.281v6.044h-19.281v-6.044z"></path>
<path fill="#444" d="M2.638 23.762h7.444v6.044h-7.444v-6.044z"></path>
<path fill="#444" d="M11.675 30h17.694v-8.337h-17.694v8.337zM16.637 28.663l-1.275-1.975-1.275 1.975h-1.144l1.906-2.606-1.844-2.738h1.144l1.275 1.844 1.144-1.844h0.956l-1.525 2.606 1.844 2.8-1.206-0.063zM22.806 28.663l-0.444-3.694-1.4 2.544-1.337-2.413-0.506 3.563h-1.019l0.7-5.344h0.825l1.337 2.419 1.337-2.419h0.825l0.7 5.344h-1.019zM27.9 28.663h-3.181v-5.344h0.956v4.394h2.225v0.95z"></path>
</svg>
