<!-- Generated by IcoMoon.io -->
<svg version="1.1" xmlns="http://www.w3.org/2000/svg" width="32" height="32" viewBox="0 0 32 32">
<title>one-note</title>
<path fill="#888" d="M13.756 9.856h2.775v0.594h-2.775v-0.594z"></path>
<path fill="#888" d="M13.756 11.744h2.775v0.594h-2.775v-0.594z"></path>
<path fill="#888" d="M13.756 13.637h2.775v0.594h-2.775v-0.594z"></path>
<path fill="#888" d="M13.756 15.525h2.775v0.594h-2.775v-0.594z"></path>
<path fill="#888" d="M5.719 2v27.944h12.7v-7.681h7.856v-20.262h-20.556zM18.006 10.45v8.331h-5.731v-13h5.731v0.594h1.538v4.019l-1.538 0.056zM19.544 18.188h-0.887v-3.188h0.887v3.188zM19.544 14.525h-0.887v-3.188h0.887v3.188z"></path>
<path fill="#888" d="M13.756 7.906h2.775v0.594h-2.775v-0.594z"></path>
<path fill="#888" d="M20.256 24.15v5.85l5.906-5.85z"></path>
</svg>
