<!-- Generated by IcoMoon.io -->
<svg version="1.1" xmlns="http://www.w3.org/2000/svg" width="16" height="16" viewBox="0 0 32 32">
<title>video</title>
<path fill="#888" d="M3.625 30h24.75v-28h-24.75v28zM5.369 3.744h1.8v1.975h-1.8v-1.975zM7.231 28.025h-1.806v-1.512h1.8v1.512zM7.231 24.831h-1.806v-1.512h1.8v1.512zM7.231 21.637h-1.806v-1.512h1.8v1.512zM7.231 18.438h-1.806v-1.512h1.8v1.512zM7.231 15.3h-1.806v-1.512h1.8v1.512zM7.231 12.106h-1.806v-1.512h1.8v1.512zM7.231 8.912h-1.806v-1.513h1.8v1.513zM22.913 28.375h-14v-24.631h14.056l-0.056 24.631zM24.769 3.744h1.8v1.975h-1.8v-1.975zM26.575 28.025h-1.8v-1.512h1.8v1.512zM26.575 24.831h-1.8v-1.512h1.8v1.512zM26.575 21.637h-1.8v-1.512h1.8v1.512zM26.575 18.438h-1.8v-1.512h1.8v1.512zM26.575 15.3h-1.8v-1.512h1.8v1.512zM26.575 12.106h-1.8v-1.512h1.8v1.512zM26.575 8.912h-1.8v-1.513h1.8v1.513z"></path>
<path fill="#888" d="M13.094 12.169v7.725l5.813-3.894z"></path>
</svg>
