<!-- Generated by IcoMoon.io -->
<svg version="1.1" xmlns="http://www.w3.org/2000/svg" width="32" height="32" viewBox="0 0 32 32">
<title>excel</title>
<path fill="#888" d="M5.719 2v27.944h12.7v-7.681h7.856v-20.262h-20.556zM13.344 19.781h-3.781v-2.188h3.781v2.188zM13.344 16.769h-3.781v-2.188h3.781v2.188zM13.344 13.813h-3.781v-2.188h3.781v2.188zM13.344 10.8h-3.781v-2.188h3.781v2.188zM13.344 7.787h-3.781v-2.244h3.781v2.244zM17.775 19.781h-3.781v-2.188h3.781v2.188zM17.775 16.769h-3.781v-2.188h3.781v2.188zM17.775 13.813h-3.781v-2.188h3.781v2.188zM17.775 10.8h-3.781v-2.188h3.781v2.188zM17.775 7.787h-3.781v-2.244h3.781v2.244zM22.319 19.781h-3.781v-2.188h3.781v2.188zM22.319 16.769h-3.781v-2.188h3.781v2.188zM22.319 13.813h-3.781v-2.188h3.781v2.188zM22.319 10.8h-3.781v-2.188h3.781v2.188zM22.319 7.787h-3.781v-2.244h3.781v2.244z"></path>
<path fill="#888" d="M20.256 24.15v5.85h0.056l5.906-5.85z"></path>
</svg>
