<!-- Generated by IcoMoon.io -->
<svg version="1.1" xmlns="http://www.w3.org/2000/svg" width="32" height="32" viewBox="0 0 32 32">
<title>access</title>
<path fill="#888" d="M20.006 8.719c-0.413 0.469-0.356 1.181 0.119 1.65 0.469 0.469 1.238 0.469 1.65 0s0.413-1.181-0.119-1.65c-0.469-0.469-1.175-0.469-1.65 0z"></path>
<path fill="#888" d="M5.744 2v27.944h12.675v-7.669h7.837v-20.275h-20.512zM22.719 13.787c-1.063 1.119-2.712 1.475-4.188 1.063l-1.181 1.237-1.594 0.056-0.056 1.594h-1.475l0.056 1.475h-1.475l0.056 1.531h-2.594c-0.294 0-0.706-0.356-0.706-0.706l-0.119-2.063 5.894-6.188c-0.469-1.475-0.175-3.063 0.881-4.188 1.594-1.713 4.6-1.475 6.369 0.237s1.725 4.3 0.131 5.95z"></path>
<path fill="#888" d="M20.306 24.163v5.837l5.894-5.837z"></path>
</svg>
