<!-- Generated by IcoMoon.io -->
<svg version="1.1" xmlns="http://www.w3.org/2000/svg" width="16" height="16" viewBox="0 0 32 32">
<title>sql</title>
<path fill="#888" d="M2.638 2h19.281v6.044h-19.281v-6.044z"></path>
<path fill="#888" d="M2.638 16.575v6.044h7.444v-2.613h11.838v-3.431z"></path>
<path fill="#888" d="M2.638 9.381h19.281v6.044h-19.281v-6.044z"></path>
<path fill="#888" d="M2.638 23.762h7.444v6.044h-7.444v-6.044z"></path>
<path fill="#888" d="M11.675 30h17.694v-8.337h-17.694v8.337zM17.781 27.644c0 0.125-0.063 0.256-0.194 0.381-0.063 0.125-0.194 0.256-0.381 0.381-0.125 0.125-0.319 0.194-0.637 0.256-0.256 0.063-0.575 0.125-0.894 0.125-0.381 0-0.7-0.063-1.019-0.125s-0.575-0.194-0.7-0.256l0.125-1.144c0.194 0.125 0.381 0.319 0.7 0.381 0.319 0.125 0.637 0.194 1.019 0.194 0.637 0 0.956-0.194 0.956-0.575 0-0.125 0-0.194-0.063-0.319-0.063-0.063-0.125-0.125-0.194-0.194-0.063-0.063-0.125-0.125-0.319-0.194-0.125-0.063-0.256-0.125-0.319-0.125s-0.194-0.063-0.381-0.125c-0.125-0.063-0.256-0.063-0.319-0.125l-0.319-0.125c-0.125-0.063-0.256-0.125-0.319-0.125-0.063-0.063-0.125-0.125-0.256-0.194-0.125-0.063-0.194-0.125-0.194-0.256-0.063-0.063-0.063-0.194-0.125-0.319s-0.063-0.256-0.063-0.381c0-0.444 0.125-0.825 0.444-1.144s0.825-0.506 1.463-0.506c0.319 0 0.7 0.063 1.019 0.125s0.575 0.194 0.7 0.319l-0.125 1.019c-0.575-0.319-1.144-0.506-1.594-0.506-0.256 0-0.506 0.063-0.7 0.125s-0.319 0.256-0.319 0.444c0 0.194 0.063 0.319 0.256 0.444s0.444 0.194 0.825 0.319c0.194 0.063 0.319 0.125 0.444 0.194 0.125 0.063 0.256 0.063 0.381 0.125 0.194 0.063 0.319 0.125 0.381 0.194 0.125 0.063 0.194 0.194 0.319 0.319s0.194 0.256 0.256 0.381c0.063 0.125 0.063 0.319 0.063 0.506 0.144 0.256 0.144 0.381 0.081 0.506zM23.637 28.094l-0.575 0.7-0.506-0.444c-0.444 0.319-0.956 0.444-1.525 0.444-0.762 0-1.4-0.256-1.906-0.762s-0.762-1.206-0.762-2.038 0.256-1.525 0.762-2.038c0.506-0.506 1.144-0.762 1.906-0.762s1.4 0.256 1.906 0.762 0.762 1.206 0.762 2.038c0 0.637-0.125 1.206-0.444 1.656l0.381 0.444zM27.644 28.663h-3.181v-5.344h1.019v4.394h2.225l-0.063 0.95z"></path>
<path fill="#888" d="M20.962 24.144c-0.506 0-0.894 0.194-1.144 0.506s-0.381 0.762-0.381 1.337 0.125 1.019 0.381 1.337 0.637 0.506 1.144 0.506c0.319 0 0.575-0.063 0.762-0.194l-0.637-0.575 0.575-0.7 0.7 0.575c0.125-0.256 0.194-0.637 0.194-1.019 0-0.575-0.125-1.019-0.381-1.337-0.319-0.244-0.7-0.438-1.212-0.438z"></path>
</svg>
